A searing portrait of war and prejudice, 'Only the Brave' takes you on a haunting journey into the hearts and minds of the forgotten heroes of WWII - the Japanese-American 100th/442nd. In 1941, when Japan attacked Pearl Harbor, overnight Japanese Americans were put into internment camps for the duration of the war...
 
http://www.imdb.com/title/tt0410403/

Releasedate is 2010.

Subtitles (srt) : Dutch.

Covers included.

Na de aanval op Pearl Harbor worden Japanse Amerikanen massaal in kampen geplaatst. Om hun loyaliteit te bewijzen schrijven 1400 van hen zich in bij het Amerikaanse leger. Zij vechten de rest van de tweede wereldoorlog in Noord Afrika, Italie en Frankrijk bij het honderdste infanterie bataljon.
 
http://www.moviemeter.nl/film/70385

Releasedatum is 2010.

Ondertitels (srt) : Nederlands.

Hoesjes bijgevoegd.

General
Complete name                    : Only the Brave-AC3-XviD-BRRip[Eng]2006-2010 2Lions-Team\Only the Brave-AC3-XviD-BRRip[Eng]2006-2010 2Lions-Team.avi
Format                           : AVI
Format/Info                      : Audio Video Interleave
File size                        : 1.46 GiB
Duration                         : 1h 40mn
Overall bit rate                 : 2 088 Kbps
Writing application              : VirtualDubMod 1.5.4.1 (build 2178/release)
Writing library                  : VirtualDubMod build 2178/release
Source                           : Only.The.Brave.2006.1080p.BluRay.x264-LCHD

Video
ID                               : 0
Format                           : MPEG-4 Visual
Format profile                   : Simple@L3
Format settings, BVOP            : No
Format settings, QPel            : No
Format settings, GMC             : No warppoints
Format settings, Matrix          : Default (H.263)
Codec ID                         : XVID
Codec ID/Hint                    : XviD
Duration                         : 1h 40mn
Bit rate                         : 1 631 Kbps
Width                            : 720 pixels
Height                           : 400 pixels
Display aspect ratio             : 16:9
Frame rate                       : 23.976 fps
Resolution                       : 8 bits
Colorimetry                      : 4:2:0
Scan type                        : Progressive
Bits/(Pixel*Frame)               : 0.236
Stream size                      : 1.14 GiB (78%)
Writing library                  : XviD 1.1.2 (UTC 2006-11-01)

Audio
ID                               : 1
Format                           : AC-3
Format/Info                      : Audio Coding 3
Codec ID                         : 2000
Duration                         : 1h 40mn
Bit rate mode                    : Constant
Bit rate                         : 448 Kbps
Channel(s)                       : 6 channels
Channel positions                : Front: L C R, Surround: L R, LFE
Sampling rate                    : 48.0 KHz
Stream size                      : 321 MiB (21%)
Alignment                        : Split accross interleaves
Interleave, duration             : 42 ms (1.00 video frame)
Interleave, preload duration     : 500 ms

Thanks to relentless for the Dutch subs.Nice job!
 
Brought to you by Gollum

DON T HIT AND RUN Niet gelijk afhaken als de FILM binnen is blijf seeden. 

Don`t quit after you finished the download, but keep seeding

There are fake torrents from uploaders who use our team name.
Those are not ours, or members from our team.
We 2Lions-Team are not responsible for the fake posts on our name

Wij 2Lions-Team zijn niet verantwoordelijk voor die zieke FAKE posten die op onze naam worden gedaan

Please check our site !!!

to the fakers , get a life !!!